<svg width="24" height="25" viewBox="0 0 24 25" fill="none" xmlns="http://www.w3.org/2000/svg">
<path d="M11.9729 17.7559C11.7584 17.7559 11.5487 17.826 11.3703 17.9574C11.192 18.0888 11.053 18.2756 10.9709 18.4941C10.8888 18.7127 10.8673 18.9531 10.9092 19.1851C10.951 19.4171 11.0543 19.6302 11.206 19.7974C11.3576 19.9647 11.5509 20.0786 11.7613 20.1247C11.9717 20.1708 12.1897 20.1472 12.3879 20.0566C12.5861 19.9661 12.7555 19.8128 12.8746 19.6162C12.9938 19.4195 13.0574 19.1883 13.0574 18.9518C13.0574 18.6346 12.9431 18.3304 12.7398 18.1062C12.5364 17.8819 12.2605 17.7559 11.9729 17.7559ZM23.545 19.5139L14.8144 2.77143C14.5322 2.21356 14.12 1.74889 13.6205 1.42542C13.121 1.10194 12.5522 0.931396 11.9729 0.931396C11.3936 0.931396 10.8248 1.10194 10.3252 1.42542C9.8257 1.74889 9.41354 2.21356 9.13135 2.77143L0.454987 19.5139C0.163023 20.0568 0.0061395 20.6751 0.000176565 21.3063C-0.00578637 21.9375 0.139382 22.5592 0.421025 23.1088C0.702668 23.6583 1.11082 24.1162 1.60426 24.4362C2.09771 24.7561 2.65898 24.9269 3.23142 24.9312H20.7143C21.2913 24.9375 21.8595 24.7744 22.3605 24.4587C22.8616 24.1431 23.2775 23.6861 23.5655 23.1348C23.8536 22.5834 24.0036 21.9575 23.9999 21.3212C23.9963 20.685 23.8393 20.0612 23.545 19.5139ZM21.6687 21.9056C21.5736 22.0921 21.4349 22.2471 21.2671 22.3544C21.0992 22.4616 20.9083 22.5173 20.7143 22.5155H3.23142C3.03741 22.5173 2.84652 22.4616 2.67865 22.3544C2.51078 22.2471 2.37209 22.0921 2.27702 21.9056C2.18183 21.7238 2.13172 21.5176 2.13172 21.3077C2.13172 21.0978 2.18183 20.8915 2.27702 20.7097L10.9534 3.96731C11.0444 3.77143 11.1827 3.60703 11.353 3.49224C11.5233 3.37744 11.719 3.3167 11.9186 3.3167C12.1182 3.3167 12.314 3.37744 12.4843 3.49224C12.6546 3.60703 12.7929 3.77143 12.8839 3.96731L21.6145 20.7097C21.7221 20.8889 21.7839 21.0968 21.7934 21.3114C21.803 21.5261 21.7599 21.7396 21.6687 21.9295V21.9056ZM11.9729 8.1888C11.6852 8.1888 11.4094 8.31479 11.206 8.53906C11.0026 8.76334 10.8883 9.06752 10.8883 9.38468V14.1682C10.8883 14.4854 11.0026 14.7896 11.206 15.0139C11.4094 15.2381 11.6852 15.3641 11.9729 15.3641C12.2605 15.3641 12.5364 15.2381 12.7398 15.0139C12.9431 14.7896 13.0574 14.4854 13.0574 14.1682V9.38468C13.0574 9.06752 12.9431 8.76334 12.7398 8.53906C12.5364 8.31479 12.2605 8.1888 11.9729 8.1888Z" fill="white"/>
</svg>
